<svg width="35" height="40" viewBox="0 0 35 40" fill="none" xmlns="http://www.w3.org/2000/svg">
<path fill-rule="evenodd" clip-rule="evenodd" d="M0 0.95C0 0.42533 0.425329 0 0.95 0L20 0L35 15V39.05C35 39.5747 34.5747 40 34.05 40H0.950001C0.42533 40 0 39.5747 0 39.05V0.95Z" fill="#3369B7"/>
<path d="M9.13 27.02C9.86333 27.02 10.5067 27.1633 11.06 27.45C11.62 27.7367 12.05 28.1467 12.35 28.68C12.6567 29.2067 12.81 29.82 12.81 30.52C12.81 31.22 12.6567 31.8333 12.35 32.36C12.05 32.88 11.62 33.2833 11.06 33.57C10.5067 33.8567 9.86333 34 9.13 34H6.69V27.02H9.13ZM9.08 32.81C9.81333 32.81 10.38 32.61 10.78 32.21C11.18 31.81 11.38 31.2467 11.38 30.52C11.38 29.7933 11.18 29.2267 10.78 28.82C10.38 28.4067 9.81333 28.2 9.08 28.2H8.09V32.81H9.08ZM17.598 34.07C16.9446 34.07 16.3446 33.9167 15.798 33.61C15.2513 33.3033 14.818 32.88 14.498 32.34C14.178 31.7933 14.018 31.1767 14.018 30.49C14.018 29.81 14.178 29.2 14.498 28.66C14.818 28.1133 15.2513 27.6867 15.798 27.38C16.3446 27.0733 16.9446 26.92 17.598 26.92C18.258 26.92 18.858 27.0733 19.398 27.38C19.9446 27.6867 20.3746 28.1133 20.688 28.66C21.008 29.2 21.168 29.81 21.168 30.49C21.168 31.1767 21.008 31.7933 20.688 32.34C20.3746 32.88 19.9446 33.3033 19.398 33.61C18.8513 33.9167 18.2513 34.07 17.598 34.07ZM17.598 32.82C18.018 32.82 18.388 32.7267 18.708 32.54C19.028 32.3467 19.278 32.0733 19.458 31.72C19.638 31.3667 19.728 30.9567 19.728 30.49C19.728 30.0233 19.638 29.6167 19.458 29.27C19.278 28.9167 19.028 28.6467 18.708 28.46C18.388 28.2733 18.018 28.18 17.598 28.18C17.178 28.18 16.8046 28.2733 16.478 28.46C16.158 28.6467 15.908 28.9167 15.728 29.27C15.548 29.6167 15.458 30.0233 15.458 30.49C15.458 30.9567 15.548 31.3667 15.728 31.72C15.908 32.0733 16.158 32.3467 16.478 32.54C16.8046 32.7267 17.178 32.82 17.598 32.82ZM22.3695 30.5C22.3695 29.8133 22.5229 29.2 22.8295 28.66C23.1429 28.1133 23.5662 27.69 24.0995 27.39C24.6395 27.0833 25.2429 26.93 25.9095 26.93C26.6895 26.93 27.3729 27.13 27.9595 27.53C28.5462 27.93 28.9562 28.4833 29.1895 29.19H27.5795C27.4195 28.8567 27.1929 28.6067 26.8995 28.44C26.6129 28.2733 26.2795 28.19 25.8995 28.19C25.4929 28.19 25.1295 28.2867 24.8095 28.48C24.4962 28.6667 24.2495 28.9333 24.0695 29.28C23.8962 29.6267 23.8095 30.0333 23.8095 30.5C23.8095 30.96 23.8962 31.3667 24.0695 31.72C24.2495 32.0667 24.4962 32.3367 24.8095 32.53C25.1295 32.7167 25.4929 32.81 25.8995 32.81C26.2795 32.81 26.6129 32.7267 26.8995 32.56C27.1929 32.3867 27.4195 32.1333 27.5795 31.8H29.1895C28.9562 32.5133 28.5462 33.07 27.9595 33.47C27.3795 33.8633 26.6962 34.06 25.9095 34.06C25.2429 34.06 24.6395 33.91 24.0995 33.61C23.5662 33.3033 23.1429 32.88 22.8295 32.34C22.5229 31.8 22.3695 31.1867 22.3695 30.5Z" fill="white"/>
<path fill-rule="evenodd" clip-rule="evenodd" d="M20 0L35 15H20.95C20.4253 15 20 14.5747 20 14.05V0Z" fill="#305293"/>
</svg>
