<svg width="36" height="41" viewBox="0 0 36 41" fill="none" xmlns="http://www.w3.org/2000/svg">
<path fill-rule="evenodd" clip-rule="evenodd" d="M0 0.950002C0 0.425331 0.42533 0 0.95 0L20.5 0L35.875 15.375V40.05C35.875 40.5747 35.4497 41 34.925 41H0.950001C0.42533 41 0 40.5747 0 40.05V0.950002Z" fill="#F85640"/>
<path d="M12.157 29.6912C12.157 30.0646 12.067 30.4146 11.887 30.7412C11.7136 31.0679 11.437 31.3312 11.057 31.5312C10.6836 31.7312 10.2103 31.8312 9.63695 31.8312H8.46695V34.5112H7.06695V27.5312H9.63695C10.177 27.5312 10.637 27.6246 11.017 27.8112C11.397 27.9979 11.6803 28.2546 11.867 28.5812C12.0603 28.9079 12.157 29.2779 12.157 29.6912ZM9.57695 30.7012C9.96362 30.7012 10.2503 30.6146 10.437 30.4412C10.6236 30.2612 10.717 30.0112 10.717 29.6912C10.717 29.0112 10.337 28.6712 9.57695 28.6712H8.46695V30.7012H9.57695ZM16.0909 27.5312C16.8243 27.5312 17.4676 27.6746 18.0209 27.9612C18.5809 28.2479 19.0109 28.6579 19.3109 29.1912C19.6176 29.7179 19.7709 30.3312 19.7709 31.0312C19.7709 31.7312 19.6176 32.3446 19.3109 32.8712C19.0109 33.3912 18.5809 33.7946 18.0209 34.0812C17.4676 34.3679 16.8243 34.5112 16.0909 34.5112H13.6509V27.5312H16.0909ZM16.0409 33.3212C16.7743 33.3212 17.3409 33.1212 17.7409 32.7212C18.1409 32.3212 18.3409 31.7579 18.3409 31.0312C18.3409 30.3046 18.1409 29.7379 17.7409 29.3312C17.3409 28.9179 16.7743 28.7112 16.0409 28.7112H15.0509V33.3212H16.0409ZM25.6289 27.5312V28.6612H22.7189V30.4512H24.9489V31.5612H22.7189V34.5112H21.3189V27.5312H25.6289Z" fill="white"/>
<path fill-rule="evenodd" clip-rule="evenodd" d="M20.5 0L35.875 15.375H21.45C20.9253 15.375 20.5 14.9497 20.5 14.425V0Z" fill="#D13F2B"/>
</svg>
