<svg width="35" height="40" viewBox="0 0 35 40" fill="none" xmlns="http://www.w3.org/2000/svg">
<path fill-rule="evenodd" clip-rule="evenodd" d="M0 0.95C0 0.42533 0.425329 0 0.95 0L20 0L35 15V39.05C35 39.5747 34.5747 40 34.05 40H0.950001C0.42533 40 0 39.5747 0 39.05V0.95Z" fill="#D26E34"/>
<path d="M11.78 29.18C11.78 29.5533 11.69 29.9033 11.51 30.23C11.3367 30.5567 11.06 30.82 10.68 31.02C10.3067 31.22 9.83333 31.32 9.26 31.32H8.09V34H6.69V27.02H9.26C9.8 27.02 10.26 27.1133 10.64 27.3C11.02 27.4867 11.3033 27.7433 11.49 28.07C11.6833 28.3967 11.78 28.7667 11.78 29.18ZM9.2 30.19C9.58667 30.19 9.87333 30.1033 10.06 29.93C10.2467 29.75 10.34 29.5 10.34 29.18C10.34 28.5 9.96 28.16 9.2 28.16H8.09V30.19H9.2ZM18.364 29.18C18.364 29.5533 18.274 29.9033 18.094 30.23C17.9207 30.5567 17.644 30.82 17.264 31.02C16.8907 31.22 16.4173 31.32 15.844 31.32H14.674V34H13.274V27.02H15.844C16.384 27.02 16.844 27.1133 17.224 27.3C17.604 27.4867 17.8873 27.7433 18.074 28.07C18.2673 28.3967 18.364 28.7667 18.364 29.18ZM15.784 30.19C16.1707 30.19 16.4573 30.1033 16.644 29.93C16.8307 29.75 16.924 29.5 16.924 29.18C16.924 28.5 16.544 28.16 15.784 28.16H14.674V30.19H15.784ZM24.608 27.02V28.15H22.748V34H21.348V28.15H19.488V27.02H24.608Z" fill="white"/>
<path fill-rule="evenodd" clip-rule="evenodd" d="M20 0L35 15H20.95C20.4253 15 20 14.5747 20 14.05V0Z" fill="#B74E22"/>
</svg>
