<svg width="35" height="40" viewBox="0 0 35 40" fill="none" xmlns="http://www.w3.org/2000/svg">
<path fill-rule="evenodd" clip-rule="evenodd" d="M0 0.95C0 0.42533 0.425329 0 0.95 0L20 0L35 15V39.05C35 39.5747 34.5747 40 34.05 40H0.950001C0.42533 40 0 39.5747 0 39.05V0.95Z" fill="#34A770"/>
<path d="M11.0917 33.8889L9.58168 31.5389L8.21168 33.8889H6.63168L8.83168 30.3689L6.60168 26.9089H8.21168L9.72168 29.2489L11.0817 26.9089H12.6617L10.4717 30.4189L12.7017 33.8889H11.0917ZM15.6671 32.7789H17.9671V33.8889H14.2671V26.9089H15.6671V32.7789ZM21.767 33.9589C21.2803 33.9589 20.8403 33.8756 20.447 33.7089C20.0603 33.5422 19.7537 33.3022 19.527 32.9889C19.3003 32.6756 19.1837 32.3056 19.177 31.8789H20.677C20.697 32.1656 20.797 32.3922 20.977 32.5589C21.1637 32.7256 21.417 32.8089 21.737 32.8089C22.0637 32.8089 22.3203 32.7322 22.507 32.5789C22.6937 32.4189 22.787 32.2122 22.787 31.9589C22.787 31.7522 22.7237 31.5822 22.597 31.4489C22.4703 31.3156 22.3103 31.2122 22.117 31.1389C21.9303 31.0589 21.6703 30.9722 21.337 30.8789C20.8837 30.7456 20.5137 30.6156 20.227 30.4889C19.947 30.3556 19.7037 30.1589 19.497 29.8989C19.297 29.6322 19.197 29.2789 19.197 28.8389C19.197 28.4256 19.3003 28.0656 19.507 27.7589C19.7137 27.4522 20.0037 27.2189 20.377 27.0589C20.7503 26.8922 21.177 26.8089 21.657 26.8089C22.377 26.8089 22.9603 26.9856 23.407 27.3389C23.8603 27.6856 24.1103 28.1722 24.157 28.7989H22.617C22.6037 28.5589 22.5003 28.3622 22.307 28.2089C22.1203 28.0489 21.8703 27.9689 21.557 27.9689C21.2837 27.9689 21.0637 28.0389 20.897 28.1789C20.737 28.3189 20.657 28.5222 20.657 28.7889C20.657 28.9756 20.717 29.1322 20.837 29.2589C20.9637 29.3789 21.117 29.4789 21.297 29.5589C21.4837 29.6322 21.7437 29.7189 22.077 29.8189C22.5303 29.9522 22.9003 30.0856 23.187 30.2189C23.4737 30.3522 23.7203 30.5522 23.927 30.8189C24.1337 31.0856 24.237 31.4356 24.237 31.8689C24.237 32.2422 24.1403 32.5889 23.947 32.9089C23.7537 33.2289 23.4703 33.4856 23.097 33.6789C22.7237 33.8656 22.2803 33.9589 21.767 33.9589Z" fill="white"/>
<path fill-rule="evenodd" clip-rule="evenodd" d="M20 0L35 15H20.95C20.4253 15 20 14.5747 20 14.05V0Z" fill="#258859"/>
</svg>
